<svg xmlns="http://www.w3.org/2000/svg" xmlns:xlink="http://www.w3.org/1999/xlink" viewBox="0,0,256,256" width="1024px" height="1024px" fill-rule="nonzero"><defs><linearGradient x1="9.899" y1="9.98" x2="38.183" y2="38.264" gradientUnits="userSpaceOnUse" id="color-1"><stop offset="0" stop-color="#0ea8df"></stop><stop offset="1" stop-color="#0a85d9"></stop></linearGradient><radialGradient cx="23.9992" cy="15.4016" r="3.98833" gradientUnits="userSpaceOnUse" id="color-2"><stop offset="0.516" stop-color="#000000"></stop><stop offset="1" stop-color="#000000" stop-opacity="0"></stop></radialGradient></defs><g fill="none" fill-rule="nonzero" stroke="none" stroke-width="1" stroke-linecap="butt" stroke-linejoin="miter" stroke-miterlimit="10" stroke-dasharray="" stroke-dashoffset="0" font-family="none" font-weight="none" font-size="none" text-anchor="none" style="mix-blend-mode: normal"><g transform="scale(5.33333,5.33333)"><path d="M44.041,24.122c0,11.045 -8.955,20 -20,20c-11.045,0 -20,-8.955 -20,-20c0,-11.045 8.955,-20 20,-20c11.045,0 20,8.955 20,20z" fill="url(#color-1)"></path><path d="M22,36h4c0.552,0 1,-0.448 1,-1v-15c0,-0.552 -0.448,-1 -1,-1h-4c-0.552,0 -1,0.448 -1,1v15c0,0.552 0.448,1 1,1z" fill="#000000" opacity="0.05"></path><path d="M22.227,35.5h3.547c0.401,0 0.727,-0.325 0.727,-0.727v-14.546c0,-0.401 -0.325,-0.727 -0.727,-0.727h-3.547c-0.401,0 -0.727,0.325 -0.727,0.727v14.547c0,0.401 0.325,0.726 0.727,0.726z" fill="#000000" opacity="0.07"></path><ellipse cx="24" cy="15.402" rx="3.988" ry="3.609" fill="url(#color-2)" opacity="0.15"></ellipse><path d="M24,17.732c1.7,0 2.65,-1.068 2.65,-2.388c0,-1.32 -1.003,-2.344 -2.65,-2.344c-1.647,0 -2.65,1.024 -2.65,2.344c0,1.32 0.95,2.388 2.65,2.388z" fill="#ffffff"></path><rect x="22" y="20" width="4" height="15" fill="#ffffff"></rect></g></g></svg>