<svg xmlns="http://www.w3.org/2000/svg" version="1.1" width="64px" height="64px" style="shape-rendering:geometricPrecision; text-rendering:geometricPrecision; image-rendering:optimizeQuality; fill-rule:evenodd; clip-rule:evenodd" xmlns:xlink="http://www.w3.org/1999/xlink">
<g><path style="opacity:0.728" fill="#416a1d" d="M 26.5,-0.5 C 27.8333,-0.5 29.1667,-0.5 30.5,-0.5C 31.6005,0.60486 32.2671,1.93819 32.5,3.5C 32.5,4.83333 32.5,6.16667 32.5,7.5C 32.5,8.16667 32.5,8.83333 32.5,9.5C 32.1667,9.5 31.8333,9.5 31.5,9.5C 31.1667,9.5 30.8333,9.5 30.5,9.5C 30.6621,7.4727 30.4955,5.4727 30,3.5C 27.9286,2.89713 26.7619,1.5638 26.5,-0.5 Z"/></g>
<g><path style="opacity:0.939" fill="#8dc53e" d="M 33.5,3.5 C 41.627,1.25824 46.9603,4.25824 49.5,12.5C 43.5186,10.513 38.1852,7.51297 33.5,3.5 Z"/></g>
<g><path style="opacity:1" fill="#709a32" d="M 32.5,3.5 C 32.8333,3.5 33.1667,3.5 33.5,3.5C 38.1852,7.51297 43.5186,10.513 49.5,12.5C 50.5983,13.6009 50.765,14.9343 50,16.5C 47.3368,14.7511 44.5035,13.4178 41.5,12.5C 41.1667,12.5 40.8333,12.5 40.5,12.5C 40.5,11.8333 40.1667,11.5 39.5,11.5C 38.609,10.8902 37.609,10.5569 36.5,10.5C 36.5,9.83333 36.1667,9.5 35.5,9.5C 34.7095,8.59872 33.7095,7.93205 32.5,7.5C 32.5,6.16667 32.5,4.83333 32.5,3.5 Z"/></g>
<g><path style="opacity:0.97" fill="#f9e6c4" d="M 31.5,9.5 C 31.8333,9.5 32.1667,9.5 32.5,9.5C 33.5,9.5 34.5,9.5 35.5,9.5C 36.1667,9.5 36.5,9.83333 36.5,10.5C 37.609,10.5569 38.609,10.8902 39.5,11.5C 40.1667,11.5 40.5,11.8333 40.5,12.5C 40.8333,12.5 41.1667,12.5 41.5,12.5C 44.5005,17.344 46.0005,22.6774 46,28.5C 47.3485,32.5331 49.6819,35.8664 53,38.5C 58.184,49.786 55.3507,58.1193 44.5,63.5C 40.1667,63.5 35.8333,63.5 31.5,63.5C 31.5,45.8333 31.5,28.1667 31.5,10.5C 31.5,10.1667 31.5,9.83333 31.5,9.5 Z"/></g>
<g><path style="opacity:1" fill="#6b9e59" d="M 30.5,9.5 C 30.8333,9.5 31.1667,9.5 31.5,9.5C 31.5,9.83333 31.5,10.1667 31.5,10.5C 23.8919,14.0455 20.7252,20.0455 22,28.5C 20.6515,32.5331 18.3181,35.8664 15,38.5C 13.2932,40.9088 12.4598,43.5755 12.5,46.5C 9.83333,47.5 9.83333,48.5 12.5,49.5C 12.5,49.8333 12.5,50.1667 12.5,50.5C 12.6418,54.7052 14.9752,57.7052 19.5,59.5C 20.3696,61.2737 21.703,62.607 23.5,63.5C 21.8333,63.5 20.1667,63.5 18.5,63.5C 9.68582,59.8027 6.18582,53.136 8,43.5C 10.9682,38.5203 13.9682,33.5203 17,28.5C 16.1647,18.1161 20.6647,11.7828 30.5,9.5 Z"/></g>
<g><path style="opacity:0.998" fill="#83c271" d="M 31.5,10.5 C 31.5,28.1667 31.5,45.8333 31.5,63.5C 28.8333,63.5 26.1667,63.5 23.5,63.5C 21.703,62.607 20.3696,61.2737 19.5,59.5C 20.2389,59.631 20.9056,59.4643 21.5,59C 17.9734,56.6378 14.9734,53.8045 12.5,50.5C 12.5,50.1667 12.5,49.8333 12.5,49.5C 12.5,48.5 12.5,47.5 12.5,46.5C 12.4598,43.5755 13.2932,40.9088 15,38.5C 18.3181,35.8664 20.6515,32.5331 22,28.5C 20.7252,20.0455 23.8919,14.0455 31.5,10.5 Z"/></g>
<g><path style="opacity:1" fill="#e6806a" d="M 46.5,37.5 C 43.3113,39.2599 39.9779,40.7599 36.5,42C 35.6634,43.0113 35.33,44.1779 35.5,45.5C 35.5,46.8333 35.5,48.1667 35.5,49.5C 35.5,52.5 35.5,55.5 35.5,58.5C 34.3427,49.6762 34.176,40.6762 35,31.5C 36.4659,29.6751 38.2992,29.1751 40.5,30C 43.0939,32.0865 45.0939,34.5865 46.5,37.5 Z"/></g>
<g><path style="opacity:1" fill="#e95f42" d="M 46.5,37.5 C 48.0598,39.9535 49.0598,42.6202 49.5,45.5C 44.8333,45.5 40.1667,45.5 35.5,45.5C 35.33,44.1779 35.6634,43.0113 36.5,42C 39.9779,40.7599 43.3113,39.2599 46.5,37.5 Z"/></g>
<g><path style="opacity:1" fill="#c1d7bf" d="M 12.5,46.5 C 12.5,47.5 12.5,48.5 12.5,49.5C 9.83333,48.5 9.83333,47.5 12.5,46.5 Z"/></g>
<g><path style="opacity:1" fill="#e37662" d="M 35.5,45.5 C 40.1667,45.5 44.8333,45.5 49.5,45.5C 49.8743,49.6474 48.8743,53.3141 46.5,56.5C 43.4433,53.4564 39.7766,51.1231 35.5,49.5C 35.5,48.1667 35.5,46.8333 35.5,45.5 Z"/></g>
<g><path style="opacity:1" fill="#e95e41" d="M 35.5,49.5 C 39.7766,51.1231 43.4433,53.4564 46.5,56.5C 43.1728,59.4019 39.5062,60.0685 35.5,58.5C 35.5,55.5 35.5,52.5 35.5,49.5 Z"/></g>
<g><path style="opacity:1" fill="#dcebde" d="M 12.5,50.5 C 14.9734,53.8045 17.9734,56.6378 21.5,59C 20.9056,59.4643 20.2389,59.631 19.5,59.5C 14.9752,57.7052 12.6418,54.7052 12.5,50.5 Z"/></g>
</svg>
